<svg class="header__logo" width="124" height="32" fill="none" xmlns="http://www.w3.org/2000/svg">
    <g clip-path="url(#a)">
        <path d="m49.934 11.139-1.486 1.6c-1.03-1.016-2.122-1.6-3.608-1.6-2.577 0-4.517 2.061-4.517 4.953 0 2.893 1.94 4.954 4.517 4.954a5.126 5.126 0 0 0 3.699-1.6l1.395 1.6C48.72 22.462 46.993 23.2 44.96 23.2c-4.244 0-7.003-3.077-7.003-7.108 0-4.123 2.759-7.2 7.003-7.2 1.91-.03 3.73.8 4.973 2.247ZM66.517 16.092c0 4.031-3.031 7.108-7.094 7.108-4.153 0-7.185-3.077-7.185-7.108 0-4.123 3.032-7.2 7.185-7.2 4.063 0 7.094 3.077 7.094 7.2Zm-11.884 0c0 2.893 2.031 4.954 4.79 4.954 2.668 0 4.7-2.061 4.7-4.954 0-2.892-2.032-4.953-4.7-4.953-2.759 0-4.79 2.061-4.79 4.953ZM76.492 22.923h-2.79l-5.7-13.662h2.578l4.517 11.324L79.615 9.26H82.1l-5.61 13.662ZM96.653 16v.923h-10.61c.272 2.8 2.212 4.216 4.517 4.216 1.546.03 3.062-.554 4.244-1.6l1.213 1.6c-1.668 1.6-3.517 2.092-5.548 2.092-4.063 0-6.913-2.8-6.913-7.108 0-4.215 2.85-7.2 6.73-7.2 3.7-.03 6.367 2.954 6.367 7.077Zm-10.58-1.046h8.307c-.273-2.339-1.85-3.939-4.063-3.939-2.395.031-3.88 1.6-4.244 3.939ZM113.995 16.092c0 4.031-3.031 7.108-7.094 7.108-4.154 0-7.185-3.077-7.185-7.108 0-4.123 3.031-7.2 7.185-7.2 4.032 0 7.094 3.077 7.094 7.2Zm-11.884 0c0 2.893 2.031 4.954 4.79 4.954 2.668 0 4.699-2.061 4.699-4.954 0-2.892-2.031-4.953-4.699-4.953-2.789 0-4.79 2.061-4.79 4.953Z" fill="#fff"/>
        <path d="M26.71 4.585A15.837 15.837 0 0 0 17.039 0c-.273 0-.486.246-.486.554 0 .123.03.215.122.308l5.7 5.692c0 .092 0 .092-.091.092a10.696 10.696 0 0 0-5.336-2.061c-.182-.031-.334.092-.364.277 0 .092.03.184.09.276l3.881 3.939s0 .092-.09 0a7.918 7.918 0 0 0-3.517-1.23c-.182 0-.273.184-.182.368l6.548 6.646c.182.185.455 0 .364-.184a7.595 7.595 0 0 0-1.213-3.57c-.09 0 0-.092 0 0l3.79 3.755c.182.184.546 0 .546-.277a12.018 12.018 0 0 0-2.031-5.508c-.091 0 0-.092 0 0l5.73 5.692a.425.425 0 0 0 .576.092c.151-.092.212-.276.151-.461-.333-3.723-1.94-7.2-4.517-9.815Z" fill="#00ADFF"/>
        <path d="M4.517 4.585C7.155 2 10.551.369 14.19 0c.273 0 .485.185.515.462 0 .123-.03.276-.151.369l-5.61 5.723c-.09.092 0 .092 0 .092a11.008 11.008 0 0 1 5.428-2.061c.272 0 .454.369.272.553l-3.85 3.939c-.09 0 0 .092 0 0C11.854 8.4 13.037 8 14.31 7.847c.182 0 .364.184.182.368l-6.579 6.646c-.182.185-.364 0-.364-.184a7.723 7.723 0 0 1 1.304-3.57s-.091-.092-.091 0l-3.699 3.755c-.273.184-.637 0-.546-.277.182-2 .88-3.908 2.032-5.508 0 0-.091-.092-.091 0l-5.64 5.692C.456 15.14 0 14.861 0 14.4a16.616 16.616 0 0 1 4.517-9.815Z" fill="#F05245"/>
        <path d="M4.517 27.323a15.28 15.28 0 0 0 9.672 4.585.42.42 0 0 0 .485-.37c.03-.153-.03-.276-.121-.4l-5.61-5.784c-.09 0 0-.092 0 0a10.681 10.681 0 0 0 5.428 2.03c.272 0 .454-.369.272-.553l-3.85-3.908c-.09-.092 0-.092 0-.092a7.527 7.527 0 0 0 3.487 1.292c.182 0 .364-.277.182-.37l-6.549-6.645c-.182-.185-.364-.093-.364.184a7.723 7.723 0 0 0 1.304 3.57s-.091.092-.091 0l-3.699-3.754c-.273-.185-.637-.093-.546.277.182 1.969.88 3.846 2.032 5.415 0 .062-.03.092-.091.092l-5.64-5.784c-.212-.185-.545-.123-.697.092a.93.93 0 0 0-.121.308 16.185 16.185 0 0 0 4.517 9.815Z" fill="#1CEBCF"/>
        <path d="M26.71 27.323c-2.577 2.677-6.003 4.308-9.671 4.585-.364.092-.637-.462-.364-.739l5.7-5.784s0-.093-.091 0a10.696 10.696 0 0 1-5.336 2.061c-.182.031-.334-.123-.364-.308 0-.092.03-.184.09-.276l3.881-3.939c0-.092 0-.092-.09-.092-1.031.738-2.244 1.2-3.487 1.292-.152-.03-.243-.154-.212-.277 0-.03 0-.061.03-.092l6.549-6.646c.182-.185.454-.093.364.184a7.595 7.595 0 0 1-1.213 3.57c-.091 0 0 .092 0 0l3.79-3.754a.326.326 0 0 1 .454 0c.061.061.091.184.091.277A11.671 11.671 0 0 1 24.8 22.8c-.091.092 0 .092 0 .092l5.7-5.784c.273-.277.818 0 .727.369a15.857 15.857 0 0 1-4.517 9.846Z" fill="#FFE300"/>
        <path opacity=".87" d="M119.483 13.23v-2.645l-.91 1.907h-.424l-.91-1.907v2.646h-.606V9.292h.606l1.122 2.462 1.122-2.462h.606v3.939h-.606ZM123.576 12.862c-.273.246-.637.4-1.001.369h-1.364V9.292h1.364c.364 0 .728.123 1.001.37.424.43.394 1.015.394 1.569s.03 1.2-.394 1.63Zm-.394-2.77a.934.934 0 0 0-.667-.277h-.728v2.862h.728a.934.934 0 0 0 .667-.277c.212-.215.212-.646.212-1.2 0-.554 0-.892-.212-1.108Z" fill="#fff"/>
    </g>
    <defs>
        <clipPath id="a">
            <path fill="#fff" d="M0 0h124v32H0z"/>
        </clipPath>
    </defs>
</svg>
